<svg width="83" height="48" viewBox="0 0 83 48" fill="none" xmlns="http://www.w3.org/2000/svg">
<path d="M52.8521 6.44543C52.8521 12.9487 50.723 18.3802 46.4647 22.7255C42.2933 26.9837 37.2094 29.2143 31.213 29.4315C30.793 30.6048 30.3005 31.7345 29.7501 32.8208C29.1998 33.9216 28.5914 34.9934 27.9252 36.0363C26.5782 38.1075 25.3615 39.469 24.2752 40.1352C32.7339 43.9445 39.0199 45.8419 43.1189 45.8419C47.102 45.8419 49.1008 44.5673 49.1008 42.0182C49.1008 41.2939 48.8111 40.5987 48.2462 39.9035C48 39.5704 47.7538 39.2517 47.5075 38.962C47.2468 38.6579 47.0006 38.3682 46.7689 38.064C46.7109 37.8902 46.6819 37.7599 46.6819 37.7019C46.6819 37.5281 46.7689 37.4267 46.9571 37.4267C47.0441 37.4267 47.1599 37.4702 47.3192 37.5571C49.3615 39.1503 50.3754 40.5987 50.3754 41.9168C50.3754 45.9578 47.4062 47.9856 41.4677 47.9856C38.3536 47.9856 35.1092 47.2614 31.7489 45.8274C31.5751 45.7695 30.7351 45.3495 29.2287 44.5673C27.7224 43.7852 25.5353 42.6554 22.6675 41.1926C19.6693 43.1044 16.758 44.1038 13.9481 44.1618C11.5148 44.2197 9.22631 43.8576 7.06819 43.0755C4.66385 42.2064 2.88232 41.0043 1.70911 39.4834C0.564876 38.0061 0 36.1956 0 34.0664C0 31.6041 0.738684 29.8371 2.20157 28.7653C3.85275 27.4762 6.08328 27.621 8.90766 29.2143C9.50151 29.5764 10.2257 30.0399 11.0513 30.6337C11.8769 31.2131 12.8183 31.9373 13.8612 32.7774C15.4834 34.0375 16.7435 35.0224 17.6415 35.7466C18.5395 36.4708 19.1044 36.9053 19.3506 37.0501C21.3929 35.1672 23.1454 32.4442 24.6083 28.9101C21.0163 28.157 18.2209 26.5927 16.2366 24.1883C14.4695 22.0012 13.586 19.4665 13.586 16.5842C13.586 14.2089 14.2088 11.9204 15.4689 9.70433C16.758 7.51724 18.554 5.76468 20.8715 4.44663C20.9294 4.41766 21.0018 4.40318 21.1032 4.40318C21.4074 4.40318 21.5522 4.54802 21.5522 4.85219C21.5522 4.99703 21.4798 5.12738 21.3205 5.21429C19.3361 6.30059 17.7864 7.85037 16.6421 9.89262C15.5993 11.7466 15.0634 13.7599 15.0634 15.918C15.0634 18.7134 15.889 21.1612 17.5401 23.2903C19.3072 25.6223 21.7984 27.1865 25.0139 27.9687C25.318 27.2155 25.7526 25.9264 26.3174 24.1014C26.8823 22.2764 27.592 19.8721 28.4321 16.9029C29.0984 14.5999 29.7646 12.5577 30.4309 10.7906C31.1116 9.02358 31.8214 7.50276 32.5745 6.24265C34.7906 2.40439 37.4122 0.521467 40.4393 0.579403C40.9173 0.608371 41.3663 0.666307 41.7719 0.738727C42.1774 0.811147 42.554 0.927019 42.9161 1.07186C44.5238 0.362143 46.2619 0.0145264 48.0869 0.0145264C49.4339 0.0145264 50.6071 0.767695 51.592 2.25955C52.4321 3.57759 52.8521 4.98254 52.8521 6.44543ZM20.2342 40.4104C19.93 40.2366 19.6113 40.0194 19.2492 39.7876C18.8871 39.5414 18.4961 39.2807 18.076 38.9765C15.86 40.3815 13.5281 41.0912 11.1092 41.0912C9.93603 41.0912 8.71937 40.9319 7.45926 40.5987C7.34339 40.5697 7.27097 40.5118 7.22752 40.4249C7.16958 40.309 7.16958 40.2221 7.22752 40.1497C7.28546 40.0628 7.35788 40.0338 7.45926 40.0628C8.05311 40.1787 8.64695 40.2656 9.21183 40.338C9.7767 40.3959 10.3416 40.4249 10.8775 40.4249C13.3108 40.4249 15.4979 39.8166 17.4387 38.5854C16.3959 37.8323 15.353 37.0791 14.3102 36.3404C13.2818 35.5872 12.239 34.8341 11.1817 34.0954C8.18346 32.1835 5.90947 31.2131 4.3452 31.2131C2.24502 31.2131 1.20217 32.227 1.20217 34.2692C1.20217 35.4714 1.65118 36.8039 2.54919 38.2668C3.44719 39.7007 4.77972 40.816 6.54677 41.5981C8.16898 42.3513 10.0229 42.7279 12.1231 42.7279C15.2082 42.6989 17.9022 41.9312 20.2342 40.4104ZM20.0169 37.5281C20.4369 37.8323 20.8425 38.1075 21.2336 38.3827C21.6246 38.6579 22.0157 38.9041 22.4068 39.1503C23.1889 39.0344 24.3042 37.7598 25.7815 35.3265C27.0416 33.2264 27.9831 31.242 28.6204 29.3881C28.1424 29.3591 27.6789 29.3302 27.2299 29.3012C26.7809 29.2722 26.3464 29.2288 25.9264 29.1708C24.3186 32.676 22.3488 35.4569 20.0169 37.5281ZM26.3174 28.2583C27.1575 28.4032 28.0121 28.5046 28.8811 28.5335L28.968 28.2583C29.0839 27.9542 29.388 27.0417 29.895 25.5209C30.3874 23.9856 31.0682 21.813 31.9372 19.0031C32.6325 16.816 33.2408 14.962 33.7767 13.4412C34.3126 11.9204 34.7616 10.7327 35.1237 9.86365C36.8618 5.82261 39.2372 2.99823 42.2354 1.40499C41.7574 1.26015 41.1491 1.14428 40.4393 1.08634C37.586 1.02841 35.1961 2.92581 33.2408 6.76407C32.6469 7.99521 32.0241 9.48707 31.4013 11.2686C30.7785 13.0356 30.1557 15.0924 29.5619 17.4243C28.2004 22.6385 27.1285 26.2595 26.3174 28.2583ZM50.9113 6.67717C50.9113 2.95478 49.825 1.10083 47.6669 1.10083C46.7399 1.10083 45.697 1.4919 44.5673 2.27403C45.4363 3.28791 45.8708 4.5625 45.8708 6.09781C45.8708 7.80692 45.3349 9.44362 44.2486 10.9934C43.0754 12.7025 41.4822 13.9337 39.4834 14.6868C39.3096 14.7448 39.1792 14.7013 39.1213 14.5565C39.0634 14.4116 39.1068 14.2813 39.2517 14.1944C41.0187 13.3833 42.4526 12.1376 43.5244 10.4575C44.5383 8.89322 45.0597 7.31447 45.0597 5.69226C45.0597 4.43215 44.7266 3.41827 44.0748 2.63613C41.9457 4.28731 40.1352 6.70614 38.6288 9.87814C37.7888 11.6742 36.8908 13.7743 35.9348 16.1787C34.9789 18.583 33.9505 21.3205 32.8787 24.4056L31.4448 28.5046C36.9342 28.2294 41.5836 25.883 45.3929 21.4364C49.0718 17.1057 50.9113 12.1956 50.9113 6.67717Z" fill="white" fill-opacity="0.4"/>
<path d="M27.7949 17.2939H26.5493V25.0574H27.5632H27.7949H31.8794V23.7973H27.7949V17.2939Z" fill="white"/>
<path d="M47.3773 21.9288C47.3773 23.0151 46.4938 23.8842 45.422 23.8842C44.3357 23.8842 43.4667 23.0006 43.4667 21.9288V17.2939H42.2065V21.9288C42.2065 23.6959 43.6405 25.1443 45.422 25.1443C47.189 25.1443 48.6374 23.7104 48.6374 21.9288V17.2939H47.3773V21.9288Z" fill="white"/>
<path d="M36.6013 17.1926C34.3997 17.1926 32.6182 18.9741 32.6182 21.1757C32.6182 23.3772 34.3997 25.1588 36.6013 25.1588C38.8028 25.1588 40.5844 23.3772 40.5844 21.1757C40.5844 18.9741 38.8028 17.1926 36.6013 17.1926ZM36.6013 23.8987C35.1094 23.8987 33.8928 22.682 33.8928 21.1902C33.8928 19.6983 35.1094 18.4816 36.6013 18.4816C38.0931 18.4816 39.3098 19.6983 39.3098 21.1902C39.3098 22.682 38.0931 23.8987 36.6013 23.8987Z" fill="white"/>
<path d="M53.0549 17.2939L49.6367 25.0574H50.9982L51.8093 23.2179H55.5462L56.3573 25.0574H57.7188L54.3151 17.2939H53.0549ZM52.3597 21.9578L53.6778 18.9596L54.9958 21.9578H52.3597Z" fill="white"/>
<path d="M64.454 22.6965L60.326 17.2939H59.0659V25.0574H60.326V19.6548L64.454 25.0574H65.6996V17.2939H64.454V22.6965Z" fill="white"/>
<path d="M82.1099 18.5541V17.2939H77.6343H76.6204H76.3887V25.0574H76.6204H77.6343H82.1099V23.7973H77.6343V21.7985H81.6029V20.5528H77.6343V18.5541H82.1099Z" fill="white"/>
<path d="M73.8396 20.7991H73.2602H71.2904V21.9868H73.2602V23.2179C72.7823 23.6379 72.1595 23.8986 71.4642 23.8986C69.9724 23.8986 68.7557 22.682 68.7557 21.1901C68.7557 19.6983 69.9724 18.4816 71.4642 18.4816C72.2319 18.4816 72.9271 18.8003 73.434 19.3217L74.2741 18.3513C73.5499 17.6416 72.565 17.207 71.4787 17.207C69.2771 17.207 67.4956 18.9886 67.4956 21.1901C67.4956 23.3917 69.2771 25.1732 71.4787 25.1732C72.7098 25.1732 73.8251 24.6084 74.5493 23.7248V23.58V20.8136H74.1582H73.8396V20.7991Z" fill="white"/>
<path d="M29.2144 28.6494H29.5475V30.7061H29.2144V30.9813H30.3586V30.7061H30.0255V28.6494H30.3586V28.3742H29.2144V28.6494Z" fill="white"/>
<path d="M33.5162 28.6494H33.8494V30.1123L33.8638 30.3151L33.7335 30.0978L32.4589 28.3887V28.3742H31.6768V28.6494H32.0099V30.7061H31.6768V30.9813H32.6327V30.7061H32.3141V28.997L32.2851 28.8667L32.3865 29.026L33.8494 31.0103L33.8638 31.0248H34.1535V28.6494H34.4867V28.3742H33.5162V28.6494Z" fill="white"/>
<path d="M35.7031 29.1998H36.0363V28.7073L36.0797 28.6494H36.6736V30.7061H36.3115V30.9813H37.5281V30.7061H37.1515V28.6494H37.7454L37.8033 28.7073V29.1998H38.1364V28.3742H35.7031V29.1998Z" fill="white"/>
<path d="M41.1056 30.6482L41.0477 30.7061H40.1496V29.7936H40.7145L40.7435 29.8226V29.9964H41.0477V29.3157H40.7435V29.4895L40.7145 29.5184H40.1496V28.6494H40.9897L41.0477 28.7073V29.0405H41.3518V28.3742H39.353V28.6494H39.6717V30.7061H39.353V30.9813H41.4098V30.2861H41.1056V30.6482Z" fill="white"/>
<path d="M44.3358 29.8226C44.4951 29.7646 44.6254 29.6777 44.7268 29.5619C44.8427 29.4315 44.9006 29.2722 44.9006 29.0984C44.9006 28.968 44.8717 28.8522 44.8282 28.7508C44.7703 28.6494 44.6979 28.577 44.611 28.519C44.5241 28.4611 44.4227 28.4176 44.2923 28.3887C44.0606 28.3307 43.7999 28.3452 43.5247 28.3597C43.3943 28.3742 43.2784 28.3742 43.177 28.3742H42.7715V28.6494H43.1046V30.7061H42.7715V30.9813H43.8868V30.7061H43.5681V29.895H43.8868L44.611 30.9813H45.2483V30.7061H45.002L44.3358 29.8226ZM44.3937 29.0984C44.3937 29.2577 44.3502 29.3881 44.2489 29.4894C44.1475 29.5908 44.0171 29.6343 43.8433 29.6343H43.5971V28.6349C43.626 28.6349 43.655 28.6349 43.684 28.6204C43.7274 28.6204 43.7709 28.6204 43.8433 28.6204C44.0171 28.6204 44.162 28.6639 44.2633 28.7363C44.3358 28.8087 44.3937 28.9391 44.3937 29.0984Z" fill="white"/>
<path d="M46.4937 28.6494H46.8268V30.7061H46.4937V30.9813H47.6379V30.7061H47.3048V28.6494H47.6379V28.3742H46.4937V28.6494Z" fill="white"/>
<path d="M51.3604 28.7218C51.2445 28.6059 51.0997 28.5045 50.9404 28.4466C50.7811 28.3742 50.5928 28.3452 50.3755 28.3452C50.1727 28.3452 49.9844 28.3742 49.8106 28.4466C49.6513 28.519 49.5065 28.6059 49.3906 28.7218C49.2747 28.8377 49.1878 28.9825 49.1299 29.1563C49.0719 29.3156 49.043 29.5039 49.043 29.6922C49.043 29.8805 49.0719 30.0688 49.1299 30.2281C49.1878 30.3875 49.2747 30.5323 49.3906 30.6627C49.5065 30.7785 49.6368 30.8799 49.8106 30.9379C49.9699 31.0103 50.1582 31.0392 50.3755 31.0392C50.5783 31.0392 50.7666 31.0103 50.9404 30.9379C51.0997 30.8654 51.2445 30.7785 51.3604 30.6627C51.4763 30.5468 51.5632 30.4019 51.6211 30.2281C51.6791 30.0688 51.708 29.8805 51.708 29.6922C51.708 29.5039 51.6791 29.3156 51.6211 29.1563C51.5632 28.9825 51.4763 28.8377 51.3604 28.7218ZM50.4189 30.7496C50.2741 30.7496 50.1582 30.7206 50.0424 30.6627C49.941 30.6047 49.8541 30.5323 49.7817 30.4454C49.7092 30.344 49.6658 30.2426 49.6223 30.1123C49.5934 29.9819 49.5644 29.8371 49.5644 29.6922C49.5644 29.5474 49.5789 29.4025 49.6078 29.2722C49.6368 29.1418 49.6803 29.026 49.7382 28.9391C49.7961 28.8522 49.883 28.7652 49.9699 28.7218C50.0713 28.6639 50.1872 28.6349 50.3176 28.6349C50.4624 28.6349 50.5928 28.6639 50.6941 28.7218C50.7955 28.7797 50.8824 28.8522 50.9549 28.9391C51.0273 29.0404 51.0707 29.1418 51.1142 29.2722C51.1431 29.4025 51.1721 29.5474 51.1721 29.6922C51.1721 29.8371 51.1576 29.9819 51.1287 30.1123C51.0997 30.2426 51.0418 30.3585 50.9838 30.4454C50.9259 30.5323 50.839 30.6192 50.7376 30.6627C50.6507 30.7206 50.5493 30.7496 50.4189 30.7496Z" fill="white"/>
<path d="M54.6195 29.8226C54.7788 29.7646 54.9091 29.6777 55.0105 29.5619C55.1264 29.4315 55.1843 29.2722 55.1843 29.0984C55.1843 28.968 55.1554 28.8522 55.1119 28.7508C55.054 28.6494 54.9816 28.577 54.8946 28.519C54.8077 28.4611 54.7064 28.4176 54.576 28.3887C54.3443 28.3307 54.0835 28.3452 53.8083 28.3597C53.678 28.3742 53.5621 28.3742 53.4607 28.3742H53.0552V28.6494H53.3883V30.7061H53.0552V30.9813H54.1704V30.7061H53.8518V29.895H54.1704L54.8946 30.9813H55.5319V30.7061H55.2857L54.6195 29.8226ZM54.6629 29.0984C54.6629 29.2577 54.6194 29.3881 54.5181 29.4894C54.4167 29.5908 54.2863 29.6343 54.1125 29.6343H53.8663V28.6349C53.8952 28.6349 53.9242 28.6349 53.9532 28.6204C53.9966 28.6204 54.0401 28.6204 54.1125 28.6204C54.2863 28.6204 54.4312 28.6639 54.5325 28.7363C54.6195 28.8087 54.6629 28.9391 54.6629 29.0984Z" fill="white"/>
<path d="M60.3407 29.6778C60.2393 29.6199 60.1234 29.5619 60.0075 29.504C59.8916 29.4605 59.7903 29.4026 59.6889 29.3447C59.5875 29.2867 59.5151 29.2288 59.4426 29.1708C59.3847 29.1129 59.3557 29.0405 59.3557 28.9536C59.3557 28.8377 59.3847 28.7653 59.4716 28.7074C59.544 28.6494 59.6599 28.6205 59.7903 28.6205C59.8772 28.6205 59.9641 28.6205 60.0365 28.6349C60.1089 28.6494 60.1668 28.6494 60.2103 28.6784L60.2537 28.7508V29.1708H60.5579V28.4901L60.5289 28.4756C60.442 28.4322 60.3407 28.4032 60.2103 28.3887C60.0944 28.3597 59.9351 28.3597 59.7758 28.3597C59.5006 28.3597 59.2833 28.4177 59.124 28.5335C58.9647 28.6494 58.8778 28.8232 58.8778 29.0405C58.8778 29.1853 58.9067 29.3157 58.9792 29.4026C59.0516 29.504 59.1385 29.5764 59.2399 29.6488C59.3413 29.7212 59.4571 29.7792 59.573 29.8226C59.6889 29.8661 59.7903 29.924 59.8916 29.9675C59.993 30.0109 60.0655 30.0689 60.1234 30.1413C60.1813 30.1992 60.2103 30.2716 60.2103 30.3585C60.2103 30.431 60.1958 30.4889 60.1668 30.5468C60.1379 30.5903 60.0944 30.6337 60.051 30.6772C59.993 30.7062 59.9351 30.7351 59.8627 30.7496C59.7178 30.7786 59.5295 30.7786 59.3847 30.7496C59.3123 30.7351 59.2543 30.7062 59.2254 30.6772L59.1674 30.6048V30.1558H58.8633V30.8655L58.8778 30.88C58.9357 30.9234 59.0371 30.9669 59.1674 30.9958C59.2978 31.0393 59.4426 31.0538 59.6165 31.0538C59.9351 31.0538 60.1958 30.9958 60.3841 30.8655C60.5724 30.7351 60.6738 30.5468 60.6738 30.3006C60.6738 30.1558 60.6448 30.0399 60.5724 29.953C60.5289 29.8226 60.442 29.7357 60.3407 29.6778Z" fill="white"/>
<path d="M61.9917 29.1998H62.3248V28.7073L62.3828 28.6494H62.9766V30.7061H62.6V30.9813H63.8312V30.7061H63.4546V28.6494H64.0484L64.1064 28.7073V29.1998H64.4395V28.3742H61.9917V29.1998Z" fill="white"/>
<path d="M67.3798 28.6494H67.684V30.0544C67.684 30.2861 67.6261 30.4454 67.5102 30.5468C67.3943 30.6482 67.235 30.6916 67.0322 30.6916C66.9308 30.6916 66.8294 30.6772 66.7425 30.6627C66.6556 30.6482 66.5977 30.6047 66.5398 30.5613C66.4818 30.5178 66.4384 30.4454 66.4094 30.373C66.3804 30.2861 66.366 30.1847 66.366 30.0688V28.6494H66.6701V28.3742H65.5693V28.6494H65.9025V30.1413C65.9025 30.4309 66.0039 30.6627 66.1921 30.8075C66.3804 30.9524 66.6412 31.0248 67.0033 31.0248C67.1481 31.0248 67.2929 31.0103 67.4088 30.9668C67.5247 30.9234 67.6405 30.8655 67.7275 30.793C67.8144 30.7206 67.8868 30.6192 67.9302 30.5034C67.9737 30.3875 68.0026 30.2426 68.0026 30.0833V28.6494H68.3358V28.3742H67.4088V28.6494H67.3798Z" fill="white"/>
<path d="M71.7105 28.6928C71.5946 28.577 71.4353 28.4901 71.2615 28.4321C71.0877 28.3742 70.8849 28.3452 70.6532 28.3452C70.6097 28.3452 70.5663 28.3452 70.4939 28.3452C70.4359 28.3452 70.378 28.3452 70.3056 28.3597C70.2476 28.3597 70.1752 28.3597 70.1173 28.3742C70.0593 28.3742 70.0014 28.3742 69.958 28.3742H69.48V28.6494H69.8131V30.7061H69.48V30.9813H69.929C69.9724 30.9813 70.0304 30.9813 70.0883 30.9813L70.2621 30.9958C70.3201 30.9958 70.378 30.9958 70.4214 31.0103C70.4794 31.0103 70.5228 31.0103 70.5518 31.0103C70.8125 31.0103 71.0298 30.9813 71.2181 30.9089C71.4064 30.8365 71.5657 30.7496 71.6815 30.6192C71.7974 30.4888 71.8988 30.344 71.9567 30.1847C72.0147 30.0254 72.0436 29.8371 72.0436 29.6343C72.0436 29.4315 72.0147 29.2432 71.9567 29.0839C71.9278 28.9391 71.8409 28.7942 71.7105 28.6928ZM70.6387 30.7351C70.6242 30.7351 70.5952 30.7351 70.5663 30.7351H70.4504C70.407 30.7351 70.378 30.7351 70.3345 30.7351C70.3201 30.7351 70.3056 30.7351 70.2911 30.7351V28.6494C70.32 28.6494 70.3635 28.6494 70.407 28.6349C70.4649 28.6349 70.5373 28.6349 70.5952 28.6349C70.7835 28.6349 70.9284 28.6639 71.0587 28.7218C71.1746 28.7797 71.276 28.8666 71.3484 28.968C71.4208 29.0694 71.4643 29.1853 71.4933 29.3012C71.5222 29.417 71.5367 29.5474 71.5367 29.6633C71.5367 29.8081 71.5222 29.9529 71.4933 30.0833C71.4643 30.2137 71.4064 30.3295 71.3484 30.4309C71.276 30.5323 71.1891 30.6047 71.0732 30.6627C70.9573 30.7061 70.8125 30.7351 70.6387 30.7351Z" fill="white"/>
<path d="M73.4922 28.6494H73.8253V30.7061H73.4922V30.9813H74.6219V30.7061H74.3033V28.6494H74.6219V28.3742H73.4922V28.6494Z" fill="white"/>
<path d="M78.6192 29.1419C78.5612 28.9825 78.4743 28.8377 78.3585 28.7073C78.2426 28.5915 78.0977 28.4901 77.9384 28.4321C77.7791 28.3597 77.5908 28.3307 77.3735 28.3307C77.1708 28.3307 76.9825 28.3597 76.8087 28.4321C76.6493 28.5046 76.5045 28.5915 76.3886 28.7073C76.2728 28.8232 76.1859 28.968 76.1279 29.1419C76.07 29.3012 76.041 29.4895 76.041 29.6778C76.041 29.8661 76.07 30.0543 76.1279 30.2137C76.1859 30.373 76.2728 30.5178 76.3886 30.6482C76.5045 30.7641 76.6349 30.8655 76.8087 30.9234C76.968 30.9958 77.1563 31.0248 77.3735 31.0248C77.5763 31.0248 77.7646 30.9958 77.9384 30.9234C78.0977 30.851 78.2426 30.7641 78.3585 30.6482C78.4743 30.5323 78.5612 30.3875 78.6192 30.2137C78.6771 30.0543 78.7061 29.8661 78.7061 29.6778C78.7061 29.4895 78.6771 29.3012 78.6192 29.1419ZM77.4025 30.7496C77.2577 30.7496 77.1418 30.7206 77.0259 30.6627C76.9245 30.6047 76.8376 30.5323 76.7652 30.4454C76.6928 30.344 76.6493 30.2426 76.6059 30.1123C76.5769 29.9819 76.548 29.8371 76.548 29.6922C76.548 29.5474 76.5624 29.4026 76.5914 29.2722C76.6204 29.1419 76.6638 29.026 76.7218 28.9391C76.7797 28.8522 76.8666 28.7653 76.9535 28.7218C77.0549 28.6639 77.1708 28.6349 77.3011 28.6349C77.446 28.6349 77.5763 28.6639 77.6777 28.7218C77.7791 28.7798 77.866 28.8522 77.9384 28.9391C78.0108 29.0405 78.0543 29.1419 78.0977 29.2722C78.1267 29.4026 78.1557 29.5474 78.1557 29.6922C78.1557 29.8371 78.1412 29.9819 78.1122 30.1123C78.0833 30.2426 78.0253 30.3585 77.9674 30.4454C77.9095 30.5323 77.8225 30.6192 77.7212 30.6627C77.6487 30.7206 77.5329 30.7496 77.4025 30.7496Z" fill="white"/>
</svg>
